<svg width="1270" height="490" viewBox="0 0 1270 490" xmlns="http://www.w3.org/2000/svg">
  <defs>
    <style>@import url('https://fonts.googleapis.com/css2?family=Space+Grotesk:wght@700;800&amp;family=JetBrains+Mono:wght@400;700&amp;display=swap');</style>
    <pattern id="scanlines" x="0" y="0" width="1270" height="3" patternUnits="userSpaceOnUse"><rect y="0" width="1270" height="1" fill="#5533cc" opacity="0.07"/></pattern>
    <linearGradient id="krisGrad" x1="50" y1="0" x2="560" y2="0" gradientUnits="userSpaceOnUse"><stop offset="0%" stop-color="#4477ff"/><stop offset="100%" stop-color="#9944ee"/></linearGradient>
    <linearGradient id="basqueGrad" x1="50" y1="0" x2="950" y2="0" gradientUnits="userSpaceOnUse"><stop offset="0%" stop-color="#8833ee"/><stop offset="100%" stop-color="#cc77ff"/></linearGradient>
  </defs>
  <rect width="1270" height="490" rx="6" fill="#0d1035"/>
  <rect width="1270" height="490" rx="6" fill="url(#scanlines)"/>
  <path d="M48,12 L12,12 L12,48" stroke="#00ddff" stroke-width="2" fill="none" stroke-linecap="square"/>
  <path d="M1222,12 L1258,12 L1258,48" stroke="#00ddff" stroke-width="2" fill="none" stroke-linecap="square"/>
  <path d="M48,478 L12,478 L12,442" stroke="#00ddff" stroke-width="2" fill="none" stroke-linecap="square"/>
  <path d="M1222,478 L1258,478 L1258,442" stroke="#00ddff" stroke-width="2" fill="none" stroke-linecap="square"/>
  <g transform="translate(1092, 22)">
    <path d="M 8,0 L 148,0 Q 158,0 158,10 L 158,22 L 42,82 L 8,82 Q 0,82 0,74 L 0,8 Q 0,0 8,0 Z" fill="white" opacity="0.93"/>
    <path d="M 0,96 Q 0,88 8,88 L 42,88 L 158,148 L 158,160 Q 158,170 148,170 L 8,170 Q 0,170 0,162 Z" fill="white" opacity="0.93"/>
  </g>
  <text x="50" y="58" font-family="'JetBrains Mono','Courier New',monospace" font-size="14" font-weight="700" fill="#00ff88">Welcome to GitHub 🌐</text>
  <text x="54" y="183" font-family="'Space Grotesk','Arial Black',sans-serif" font-size="120" font-weight="800" fill="#1a22aa" opacity="0.45">KRIS</text>
  <text x="50" y="180" font-family="'Space Grotesk','Arial Black',sans-serif" font-size="120" font-weight="800" fill="url(#krisGrad)">KRIS</text>
  <text x="54" y="300" font-family="'Space Grotesk','Arial Black',sans-serif" font-size="120" font-weight="800" fill="#1a22aa" opacity="0.45">BASQUE</text>
  <text x="50" y="297" font-family="'Space Grotesk','Arial Black',sans-serif" font-size="120" font-weight="800" fill="url(#basqueGrad)">BASQUE</text>
  <text x="50" y="327" font-family="'JetBrains Mono','Courier New',monospace" font-size="13.5" fill="#7788bb">Head of Design  ·  Product Engineer  ·  UX  ·  Java  ·  Kotlin</text>
  <line x1="50" y1="343" x2="1220" y2="343" stroke="#1e3077" stroke-width="1"/>
  <text x="50" y="365" font-family="'JetBrains Mono','Courier New',monospace" font-size="13"><tspan fill="#00ff88" font-weight="700">Hello, World!</tspan><tspan fill="#99aacc"> Senior Product Designer with 25+ years of experience, now</tspan></text>
  <text x="50" y="382" font-family="'JetBrains Mono','Courier New',monospace" font-size="13" fill="#99aacc">crossing the line into engineering. I've shipped products for clients like</text>
  <text x="50" y="399" font-family="'JetBrains Mono','Courier New',monospace" font-size="13" fill="#99aacc"><tspan font-weight="700">Spotify</tspan><tspan>, </tspan><tspan font-weight="700">Vale</tspan><tspan>, </tspan><tspan font-weight="700">Nestlé</tspan><tspan> and </tspan><tspan font-weight="700">Harley-Davidson</tspan><tspan> — and I'm currently going deeper into the stack with Java and Kotlin.</tspan></text>
  <text x="50" y="418" font-family="'JetBrains Mono','Courier New',monospace" font-size="13" fill="#778899">Most repos here are Java experiments and projects from my Systems Analysis</text>
  <text x="50" y="435" font-family="'JetBrains Mono','Courier New',monospace" font-size="13" fill="#778899">degree at <tspan fill="#aabbcc" font-weight="700">FIAP</tspan>. Still breaking things, but on purpose now.</text>
  <text x="50" y="453" font-family="'JetBrains Mono','Courier New',monospace" font-size="11.5" fill="#556688">Based in São Paulo 🇧🇷  ·  Open to Design Engineer roles  ·  EU citizenship incoming 🇭🇺</text>
  <circle cx="51" cy="464" r="5" fill="#ff4477"/>
  <text x="63" y="468" font-family="'JetBrains Mono','Courier New',monospace" font-size="12.5" fill="#8899bb">Logged in as user: <tspan fill="#00ddff" font-weight="700">krisbasque</tspan></text>
  <text x="50" y="483" font-family="'JetBrains Mono','Courier New',monospace" font-size="12.5" fill="#778899">~/KrisRepo[<tspan fill="#00ff88">✓</tspan> main]<tspan fill="#aabbdd">▌</tspan></text>
</svg>